<svg viewBox="0 0 330 200" xmlns="http://www.w3.org/2000/svg"><g><g><g><g><g><line x1="58" y1="178" x2="53" y2="178" style="visibility: inherit;" fill="rgb(0, 0, 0)" stroke="rgb(204, 204, 204)" stroke-width="1px"></line><line x1="58" y1="158.22222222222194" x2="53" y2="158.22222222222194" style="visibility: inherit;" fill="rgb(0, 0, 0)" stroke="rgb(204, 204, 204)" stroke-width="1px"></line><line x1="58" y1="138.44444444444426" x2="53" y2="138.44444444444426" style="visibility: inherit;" fill="rgb(0, 0, 0)" stroke="rgb(204, 204, 204)" stroke-width="1px"></line><line x1="58" y1="118.66666666666654" x2="53" y2="118.66666666666654" style="visibility: inherit;" fill="rgb(0, 0, 0)" stroke="rgb(204, 204, 204)" stroke-width="1px"></line><line x1="58" y1="98.88888888888886" x2="53" y2="98.88888888888886" style="visibility: inherit;" fill="rgb(0, 0, 0)" stroke="rgb(204, 204, 204)" stroke-width="1px"></line><line x1="58" y1="79.11111111111114" x2="53" y2="79.11111111111114" style="visibility: inherit;" fill="rgb(0, 0, 0)" stroke="rgb(204, 204, 204)" stroke-width="1px"></line><line x1="58" y1="59.3333333333331" x2="53" y2="59.3333333333331" style="visibility: inherit;" fill="rgb(0, 0, 0)" stroke="rgb(204, 204, 204)" stroke-width="1px"></line><line x1="58" y1="39.5555555555554" x2="53" y2="39.5555555555554" style="visibility: inherit;" fill="rgb(0, 0, 0)" stroke="rgb(204, 204, 204)" stroke-width="1px"></line><line x1="58" y1="19.777777777777715" x2="53" y2="19.777777777777715" style="visibility: inherit;" fill="rgb(0, 0, 0)" stroke="rgb(204, 204, 204)" stroke-width="1px"></line><line x1="58" y1="0" x2="53" y2="0" style="visibility: inherit;" fill="rgb(0, 0, 0)" stroke="rgb(204, 204, 204)" stroke-width="1px"></line></g><g transform="translate(48, 0)"><text x="0" y="178" dx="0em" dy="0.3em" style="text-anchor: end; visibility: hidden; font-family: &quot;Helvetica Neue&quot;, sans-serif; font-size: 12px; font-weight: 200;" fill="rgb(50, 49, 63)" stroke="none" stroke-width="1px">26.4</text><text x="0" y="158.22222222222194" dx="0em" dy="0.3em" style="text-anchor: end; visibility: inherit; font-family: &quot;Helvetica Neue&quot;, sans-serif; font-size: 12px; font-weight: 200;" fill="rgb(50, 49, 63)" stroke="none" stroke-width="1px">26.6</text><text x="0" y="138.44444444444426" dx="0em" dy="0.3em" style="text-anchor: end; visibility: hidden; font-family: &quot;Helvetica Neue&quot;, sans-serif; font-size: 12px; font-weight: 200;" fill="rgb(50, 49, 63)" stroke="none" stroke-width="1px">26.8</text><text x="0" y="118.66666666666654" dx="0em" dy="0.3em" style="text-anchor: end; visibility: inherit; font-family: &quot;Helvetica Neue&quot;, sans-serif; font-size: 12px; font-weight: 200;" fill="rgb(50, 49, 63)" stroke="none" stroke-width="1px">27</text><text x="0" y="98.88888888888886" dx="0em" dy="0.3em" style="text-anchor: end; visibility: hidden; font-family: &quot;Helvetica Neue&quot;, sans-serif; font-size: 12px; font-weight: 200;" fill="rgb(50, 49, 63)" stroke="none" stroke-width="1px">27.2</text><text x="0" y="79.11111111111114" dx="0em" dy="0.3em" style="text-anchor: end; visibility: inherit; font-family: &quot;Helvetica Neue&quot;, sans-serif; font-size: 12px; font-weight: 200;" fill="rgb(50, 49, 63)" stroke="none" stroke-width="1px">27.4</text><text x="0" y="59.3333333333331" dx="0em" dy="0.3em" style="text-anchor: end; visibility: hidden; font-family: &quot;Helvetica Neue&quot;, sans-serif; font-size: 12px; font-weight: 200;" fill="rgb(50, 49, 63)" stroke="none" stroke-width="1px">27.6</text><text x="0" y="39.5555555555554" dx="0em" dy="0.3em" style="text-anchor: end; visibility: inherit; font-family: &quot;Helvetica Neue&quot;, sans-serif; font-size: 12px; font-weight: 200;" fill="rgb(50, 49, 63)" stroke="none" stroke-width="1px">27.8</text><text x="0" y="19.777777777777715" dx="0em" dy="0.3em" style="text-anchor: end; visibility: hidden; font-family: &quot;Helvetica Neue&quot;, sans-serif; font-size: 12px; font-weight: 200;" fill="rgb(50, 49, 63)" stroke="none" stroke-width="1px">28</text><text x="0" y="0" dx="0em" dy="0.3em" style="text-anchor: end; visibility: hidden; font-family: &quot;Helvetica Neue&quot;, sans-serif; font-size: 12px; font-weight: 200;" fill="rgb(50, 49, 63)" stroke="none" stroke-width="1px">28.2</text></g><line x1="58" y1="0" x2="58" y2="178" fill="rgb(0, 0, 0)" stroke="rgb(204, 204, 204)" stroke-width="1px"></line></g></g><g transform="translate(58, 0)" clip-path="url(#clip_0)"><clipPath id="clip_0"><rect width="272" height="178"></rect></clipPath><g><g><g><line x1="0" y1="0" x2="0" y2="178" fill="rgb(0, 0, 0)" stroke="rgb(60, 60, 60)" stroke-width="1px" opacity="0.25"></line><line x1="30.22222222222222" y1="0" x2="30.22222222222222" y2="178" fill="rgb(0, 0, 0)" stroke="rgb(60, 60, 60)" stroke-width="1px" opacity="0.25"></line><line x1="60.44444444444444" y1="0" x2="60.44444444444444" y2="178" fill="rgb(0, 0, 0)" stroke="rgb(60, 60, 60)" stroke-width="1px" opacity="0.25"></line><line x1="90.66666666666666" y1="0" x2="90.66666666666666" y2="178" fill="rgb(0, 0, 0)" stroke="rgb(60, 60, 60)" stroke-width="1px" opacity="0.25"></line><line x1="120.88888888888889" y1="0" x2="120.88888888888889" y2="178" fill="rgb(0, 0, 0)" stroke="rgb(60, 60, 60)" stroke-width="1px" opacity="0.25"></line><line x1="151.11111111111111" y1="0" x2="151.11111111111111" y2="178" fill="rgb(0, 0, 0)" stroke="rgb(60, 60, 60)" stroke-width="1px" opacity="0.25"></line><line x1="181.33333333333331" y1="0" x2="181.33333333333331" y2="178" fill="rgb(0, 0, 0)" stroke="rgb(60, 60, 60)" stroke-width="1px" opacity="0.25"></line><line x1="211.55555555555557" y1="0" x2="211.55555555555557" y2="178" fill="rgb(0, 0, 0)" stroke="rgb(60, 60, 60)" stroke-width="1px" opacity="0.25"></line><line x1="241.77777777777777" y1="0" x2="241.77777777777777" y2="178" fill="rgb(0, 0, 0)" stroke="rgb(60, 60, 60)" stroke-width="1px" opacity="0.25"></line><line x1="272" y1="0" x2="272" y2="178" fill="rgb(0, 0, 0)" stroke="rgb(60, 60, 60)" stroke-width="1px" opacity="0.25"></line></g><g><line x1="0" y1="178" x2="272" y2="178" fill="rgb(0, 0, 0)" stroke="rgb(60, 60, 60)" stroke-width="1px" opacity="0.25"></line><line x1="0" y1="158.22222222222194" x2="272" y2="158.22222222222194" fill="rgb(0, 0, 0)" stroke="rgb(60, 60, 60)" stroke-width="1px" opacity="0.25"></line><line x1="0" y1="138.44444444444426" x2="272" y2="138.44444444444426" fill="rgb(0, 0, 0)" stroke="rgb(60, 60, 60)" stroke-width="1px" opacity="0.25"></line><line x1="0" y1="118.66666666666654" x2="272" y2="118.66666666666654" fill="rgb(0, 0, 0)" stroke="rgb(60, 60, 60)" stroke-width="1px" opacity="0.25"></line><line x1="0" y1="98.88888888888886" x2="272" y2="98.88888888888886" fill="rgb(0, 0, 0)" stroke="rgb(60, 60, 60)" stroke-width="1px" opacity="0.25"></line><line x1="0" y1="79.11111111111114" x2="272" y2="79.11111111111114" fill="rgb(0, 0, 0)" stroke="rgb(60, 60, 60)" stroke-width="1px" opacity="0.25"></line><line x1="0" y1="59.3333333333331" x2="272" y2="59.3333333333331" fill="rgb(0, 0, 0)" stroke="rgb(60, 60, 60)" stroke-width="1px" opacity="0.25"></line><line x1="0" y1="39.5555555555554" x2="272" y2="39.5555555555554" fill="rgb(0, 0, 0)" stroke="rgb(60, 60, 60)" stroke-width="1px" opacity="0.25"></line><line x1="0" y1="19.777777777777715" x2="272" y2="19.777777777777715" fill="rgb(0, 0, 0)" stroke="rgb(60, 60, 60)" stroke-width="1px" opacity="0.25"></line><line x1="0" y1="0" x2="272" y2="0" fill="rgb(0, 0, 0)" stroke="rgb(60, 60, 60)" stroke-width="1px" opacity="0.25"></line></g></g></g><g><g><line x1="0" y1="2788.6666666666656" x2="272" y2="2788.6666666666656" fill="rgb(0, 0, 0)" stroke="rgb(153, 153, 153)" stroke-width="1.5px"></line></g></g><g><g><line x1="30.22222222222222" y1="0" x2="30.22222222222222" y2="178" fill="rgb(0, 0, 0)" stroke="rgb(153, 153, 153)" stroke-width="1.5px"></line></g></g><g><g><g><g><g><path stroke="rgb(255, 112, 67)" stroke-width="2px" d="M30.22222222222222,218.2075996398924L36.266666666666666,144.43427657587847L42.31111111111111,118.36317458232679L48.355555555555554,114.81830194621594L54.400000000000006,120.2587349236093L60.44444444444444,112.1658440648399L66.48888888888888,105.35961935721173L72.53333333333333,115.59260258863088L78.57777777777777,105.17605453065423L84.62222222222222,91.84168091137026L90.66666666666666,93.88999024025904L96.71111111111111,88.33757785381353L102.75555555555556,87.52353662027801L108.80000000000001,81.43710015179822L114.84444444444445,77.79537948431862L120.88888888888889,81.32721025296533L126.93333333333334,74.45897865943742L132.97777777777776,80.66531052064697L139.0222222222222,95.73512571506362L145.06666666666666,83.64140409190891L151.11111111111111,101.28665302570734L157.15555555555554,81.24934154850483L163.2,71.11860729386302L169.24444444444444,82.53230694709946L175.2888888888889,62.074438652800936L181.33333333333331,40.482173242519906L187.37777777777777,58.194366058977366L193.42222222222222,63.49561425879848L199.46666666666664,64.65714724644955L205.51111111111112,73.54517549178783L211.55555555555557,58.46832245253245L217.60000000000002,49.70016790885981L223.64444444444445,42.72613431189026L229.6888888888889,23.62484112195017L235.73333333333335,24.047243523069227L241.77777777777777,9.550084479544154L247.82222222222222,18.503391479352302L253.86666666666667,20.09455346040602L259.9111111111111,34.840156135477656L265.9555555555555,12.105985506520284" style="fill: none;" fill="none"></path></g><g><path stroke="rgb(0, 119, 187)" stroke-width="2px" d="M30.22222222222222,202.39010789659272L36.266666666666666,166.0945922428528L42.31111111111111,138.03922367079977L48.355555555555554,119.33189137090119L54.400000000000006,117.80053640617753L60.44444444444444,125.51803769325433L66.48888888888888,130.2672868934549L72.53333333333333,117.05823894850592L78.57777777777777,104.0633850849561L84.62222222222222,93.995562183711L90.66666666666666,80.86738892471197L96.71111111111111,90.04787256754295L102.75555555555556,92.04518283145616L108.80000000000001,83.34740963410553L114.84444444444445,80.22549403457766L120.88888888888889,89.59985966481158L126.93333333333334,88.84999281480393L132.97777777777776,84.7431631256034L139.0222222222222,62.8012271012924L145.06666666666666,69.8955681188736L151.11111111111111,58.56786507677354L157.15555555555554,74.59245779053118L163.2,67.17653556314639L169.24444444444444,60.33920621319626L175.2888888888889,59.434867992657544L181.33333333333331,50.620451629204425L187.37777777777777,54.818657760342276L193.42222222222222,51.41800236591017L199.46666666666664,53.803328955501485L205.51111111111112,54.115683714573365L211.55555555555557,56.13125314597269L217.60000000000002,66.95067356979558L223.64444444444445,66.7945926280153L229.6888888888889,57.90783268160651L235.73333333333335,51.83169207262951L241.77777777777777,33.06561313095284L247.82222222222222,45.47565071915383L253.86666666666667,35.45399826150367L259.9111111111111,38.32410858063923L265.9555555555555,41.095385549676735" style="fill: none;" fill="none"></path></g></g></g></g><g opacity="0.2"><g><g><g><path stroke="rgb(255, 112, 67)" stroke-width="2px" d="M30.22222222222222,218.2075996398924L36.266666666666666,104.08026885986317L42.31111111111111,96.30157343546539L48.355555555555554,111.2384190029567L54.400000000000006,126.23995971679676L60.44444444444444,102.8721860249836L66.48888888888888,97.36121580335818L72.53333333333333,127.7679345872666L78.57777777777777,92.69882710774729L84.62222222222222,75.81094190809452L90.66666666666666,96.35740364922407L96.71111111111111,81.64180416531023L102.75555555555556,86.5412826538085L108.80000000000001,74.09057913886167L114.84444444444445,73.3989257812499L120.88888888888889,85.59141455756283L126.93333333333334,66.16608386569544L132.97777777777776,88.1592271592881L139.0222222222222,113.93166097005196L145.06666666666666,69.03832202487513L151.11111111111111,122.59326595730239L157.15555555555554,57.05425347222213L163.2,58.88571082221128L169.24444444444444,96.31439929538293L175.2888888888889,37.371462504068916L181.33333333333331,14.409400939941321L187.37777777777777,79.58193333943676L193.42222222222222,69.89690017700185L199.46666666666664,66.05970467461471L205.51111111111112,84.27751837836361L211.55555555555557,40.262939453124915L217.60000000000002,39.112572987874245L223.64444444444445,34.30495029025599L229.6888888888889,0.5599242316351365L235.73333333333335,24.557296752929602L241.77777777777777,-7.955315060085809L247.82222222222222,29.314559088812842L253.86666666666667,22.015890333387517L259.9111111111111,52.64555274115659L265.9555555555555,-15.345650990804103" style="fill: none;" fill="none"></path></g><g><path stroke="rgb(0, 119, 187)" stroke-width="2px" d="M30.22222222222222,202.39010789659272L36.266666666666666,146.24094518025703L42.31111111111111,114.29851828681086L48.355555555555554,100.43979941474056L54.400000000000006,116.11696116129545L60.44444444444444,134.38060845269086L66.48888888888888,135.8484149509005L72.53333333333333,101.3419477674695L78.57777777777777,88.4977921379936L84.62222222222222,81.89190843370216L90.66666666666666,65.05306328667525L96.71111111111111,101.11881552802181L102.75555555555556,94.45521545410145L108.80000000000001,72.84892272949209L114.84444444444445,76.45657306247278L120.88888888888889,100.91812854342979L126.93333333333334,87.9445826212564L132.97777777777776,79.78431786431196L139.0222222222222,36.306727515326514L145.06666666666666,78.46193398369672L151.11111111111111,44.88967980278855L157.15555555555554,93.94218105740008L163.2,58.22178395589184L169.24444444444444,52.08310106065528L175.2888888888889,58.342875162760336L181.33333333333331,39.976998223198706L187.37777777777777,59.88801405164921L193.42222222222222,47.31169255574534L199.46666666666664,56.683623843722785L205.51111111111112,54.49285380045565L211.55555555555557,58.56506432427291L217.60000000000002,80.01518334282758L223.64444444444445,66.60612403021909L229.6888888888889,47.17702102661124L235.73333333333335,44.4947187635633L241.77777777777777,10.405469258626226L247.82222222222222,60.46083958943676L253.86666666666667,23.352797614203496L259.9111111111111,41.78978263007261L265.9555555555555,44.44171778360993" style="fill: none;" fill="none"></path></g></g></g></g></g><g><g opacity="0.928905"><span fill="rgb(0, 0, 0)" stroke="none" stroke-width="1px">Alt + Scroll to Zoom</span></g></g></g><g transform="translate(58, 178)" clip-path="url(#clip_1)"><clipPath id="clip_1"><rect width="272" height="22"></rect></clipPath><g><g><line x1="0" y1="0" x2="0" y2="5" style="visibility: inherit;" fill="rgb(0, 0, 0)" stroke="rgb(204, 204, 204)" stroke-width="1px"></line><line x1="30.22222222222222" y1="0" x2="30.22222222222222" y2="5" style="visibility: inherit;" fill="rgb(0, 0, 0)" stroke="rgb(204, 204, 204)" stroke-width="1px"></line><line x1="60.44444444444444" y1="0" x2="60.44444444444444" y2="5" style="visibility: inherit;" fill="rgb(0, 0, 0)" stroke="rgb(204, 204, 204)" stroke-width="1px"></line><line x1="90.66666666666666" y1="0" x2="90.66666666666666" y2="5" style="visibility: inherit;" fill="rgb(0, 0, 0)" stroke="rgb(204, 204, 204)" stroke-width="1px"></line><line x1="120.88888888888889" y1="0" x2="120.88888888888889" y2="5" style="visibility: inherit;" fill="rgb(0, 0, 0)" stroke="rgb(204, 204, 204)" stroke-width="1px"></line><line x1="151.11111111111111" y1="0" x2="151.11111111111111" y2="5" style="visibility: inherit;" fill="rgb(0, 0, 0)" stroke="rgb(204, 204, 204)" stroke-width="1px"></line><line x1="181.33333333333331" y1="0" x2="181.33333333333331" y2="5" style="visibility: inherit;" fill="rgb(0, 0, 0)" stroke="rgb(204, 204, 204)" stroke-width="1px"></line><line x1="211.55555555555557" y1="0" x2="211.55555555555557" y2="5" style="visibility: inherit;" fill="rgb(0, 0, 0)" stroke="rgb(204, 204, 204)" stroke-width="1px"></line><line x1="241.77777777777777" y1="0" x2="241.77777777777777" y2="5" style="visibility: inherit;" fill="rgb(0, 0, 0)" stroke="rgb(204, 204, 204)" stroke-width="1px"></line><line x1="272" y1="0" x2="272" y2="5" style="visibility: inherit;" fill="rgb(0, 0, 0)" stroke="rgb(204, 204, 204)" stroke-width="1px"></line></g><g transform="translate(0, 8)"><text x="0" y="0" dx="0em" dy="0.95em" style="text-anchor: middle; visibility: hidden; font-family: &quot;Helvetica Neue&quot;, sans-serif; font-size: 12px; font-weight: 200;" fill="rgb(50, 49, 63)" stroke="none" stroke-width="1px">-5</text><text x="30.22222222222222" y="0" dx="0em" dy="0.95em" style="text-anchor: middle; visibility: inherit; font-family: &quot;Helvetica Neue&quot;, sans-serif; font-size: 12px; font-weight: 200;" fill="rgb(50, 49, 63)" stroke="none" stroke-width="1px">0</text><text x="60.44444444444444" y="0" dx="0em" dy="0.95em" style="text-anchor: middle; visibility: inherit; font-family: &quot;Helvetica Neue&quot;, sans-serif; font-size: 12px; font-weight: 200;" fill="rgb(50, 49, 63)" stroke="none" stroke-width="1px">5</text><text x="90.66666666666666" y="0" dx="0em" dy="0.95em" style="text-anchor: middle; visibility: inherit; font-family: &quot;Helvetica Neue&quot;, sans-serif; font-size: 12px; font-weight: 200;" fill="rgb(50, 49, 63)" stroke="none" stroke-width="1px">10</text><text x="120.88888888888889" y="0" dx="0em" dy="0.95em" style="text-anchor: middle; visibility: inherit; font-family: &quot;Helvetica Neue&quot;, sans-serif; font-size: 12px; font-weight: 200;" fill="rgb(50, 49, 63)" stroke="none" stroke-width="1px">15</text><text x="151.11111111111111" y="0" dx="0em" dy="0.95em" style="text-anchor: middle; visibility: inherit; font-family: &quot;Helvetica Neue&quot;, sans-serif; font-size: 12px; font-weight: 200;" fill="rgb(50, 49, 63)" stroke="none" stroke-width="1px">20</text><text x="181.33333333333331" y="0" dx="0em" dy="0.95em" style="text-anchor: middle; visibility: inherit; font-family: &quot;Helvetica Neue&quot;, sans-serif; font-size: 12px; font-weight: 200;" fill="rgb(50, 49, 63)" stroke="none" stroke-width="1px">25</text><text x="211.55555555555557" y="0" dx="0em" dy="0.95em" style="text-anchor: middle; visibility: inherit; font-family: &quot;Helvetica Neue&quot;, sans-serif; font-size: 12px; font-weight: 200;" fill="rgb(50, 49, 63)" stroke="none" stroke-width="1px">30</text><text x="241.77777777777777" y="0" dx="0em" dy="0.95em" style="text-anchor: middle; visibility: inherit; font-family: &quot;Helvetica Neue&quot;, sans-serif; font-size: 12px; font-weight: 200;" fill="rgb(50, 49, 63)" stroke="none" stroke-width="1px">35</text><text x="272" y="0" dx="0em" dy="0.95em" style="text-anchor: middle; visibility: hidden; font-family: &quot;Helvetica Neue&quot;, sans-serif; font-size: 12px; font-weight: 200;" fill="rgb(50, 49, 63)" stroke="none" stroke-width="1px">40</text></g><line x1="0" y1="0" x2="272" y2="0" fill="rgb(0, 0, 0)" stroke="rgb(204, 204, 204)" stroke-width="1px"></line></g></g></g></g></svg>