<svg viewBox="0 0 330 200" xmlns="http://www.w3.org/2000/svg"><g><g><g><g><g><line x1="82" y1="178" x2="77" y2="178" style="visibility: inherit;" fill="rgb(0, 0, 0)" stroke="rgb(204, 204, 204)" stroke-width="1px"></line><line x1="82" y1="155.75" x2="77" y2="155.75" style="visibility: inherit;" fill="rgb(0, 0, 0)" stroke="rgb(204, 204, 204)" stroke-width="1px"></line><line x1="82" y1="133.5" x2="77" y2="133.5" style="visibility: inherit;" fill="rgb(0, 0, 0)" stroke="rgb(204, 204, 204)" stroke-width="1px"></line><line x1="82" y1="111.25" x2="77" y2="111.25" style="visibility: inherit;" fill="rgb(0, 0, 0)" stroke="rgb(204, 204, 204)" stroke-width="1px"></line><line x1="82" y1="89.00000000000001" x2="77" y2="89.00000000000001" style="visibility: inherit;" fill="rgb(0, 0, 0)" stroke="rgb(204, 204, 204)" stroke-width="1px"></line><line x1="82" y1="66.75" x2="77" y2="66.75" style="visibility: inherit;" fill="rgb(0, 0, 0)" stroke="rgb(204, 204, 204)" stroke-width="1px"></line><line x1="82" y1="44.5" x2="77" y2="44.5" style="visibility: inherit;" fill="rgb(0, 0, 0)" stroke="rgb(204, 204, 204)" stroke-width="1px"></line><line x1="82" y1="22.25" x2="77" y2="22.25" style="visibility: inherit;" fill="rgb(0, 0, 0)" stroke="rgb(204, 204, 204)" stroke-width="1px"></line><line x1="82" y1="0" x2="77" y2="0" style="visibility: inherit;" fill="rgb(0, 0, 0)" stroke="rgb(204, 204, 204)" stroke-width="1px"></line></g><g transform="translate(72, 0)"><text x="0" y="178" dx="0em" dy="0.3em" style="text-anchor: end; visibility: hidden; font-family: &quot;Helvetica Neue&quot;, sans-serif; font-size: 12px; font-weight: 200;" fill="rgb(50, 49, 63)" stroke="none" stroke-width="1px">-5e-5</text><text x="0" y="155.75" dx="0em" dy="0.3em" style="text-anchor: end; visibility: inherit; font-family: &quot;Helvetica Neue&quot;, sans-serif; font-size: 12px; font-weight: 200;" fill="rgb(50, 49, 63)" stroke="none" stroke-width="1px">0</text><text x="0" y="133.5" dx="0em" dy="0.3em" style="text-anchor: end; visibility: hidden; font-family: &quot;Helvetica Neue&quot;, sans-serif; font-size: 12px; font-weight: 200;" fill="rgb(50, 49, 63)" stroke="none" stroke-width="1px">5e-5</text><text x="0" y="111.25" dx="0em" dy="0.3em" style="text-anchor: end; visibility: inherit; font-family: &quot;Helvetica Neue&quot;, sans-serif; font-size: 12px; font-weight: 200;" fill="rgb(50, 49, 63)" stroke="none" stroke-width="1px">1e-4</text><text x="0" y="89.00000000000001" dx="0em" dy="0.3em" style="text-anchor: end; visibility: hidden; font-family: &quot;Helvetica Neue&quot;, sans-serif; font-size: 12px; font-weight: 200;" fill="rgb(50, 49, 63)" stroke="none" stroke-width="1px">1.5e-4</text><text x="0" y="66.75" dx="0em" dy="0.3em" style="text-anchor: end; visibility: inherit; font-family: &quot;Helvetica Neue&quot;, sans-serif; font-size: 12px; font-weight: 200;" fill="rgb(50, 49, 63)" stroke="none" stroke-width="1px">2e-4</text><text x="0" y="44.5" dx="0em" dy="0.3em" style="text-anchor: end; visibility: hidden; font-family: &quot;Helvetica Neue&quot;, sans-serif; font-size: 12px; font-weight: 200;" fill="rgb(50, 49, 63)" stroke="none" stroke-width="1px">2.5e-4</text><text x="0" y="22.25" dx="0em" dy="0.3em" style="text-anchor: end; visibility: inherit; font-family: &quot;Helvetica Neue&quot;, sans-serif; font-size: 12px; font-weight: 200;" fill="rgb(50, 49, 63)" stroke="none" stroke-width="1px">3e-4</text><text x="0" y="0" dx="0em" dy="0.3em" style="text-anchor: end; visibility: hidden; font-family: &quot;Helvetica Neue&quot;, sans-serif; font-size: 12px; font-weight: 200;" fill="rgb(50, 49, 63)" stroke="none" stroke-width="1px">3.5e-4</text></g><line x1="82" y1="0" x2="82" y2="178" fill="rgb(0, 0, 0)" stroke="rgb(204, 204, 204)" stroke-width="1px"></line></g></g><g transform="translate(82, 0)" clip-path="url(#clip_0)"><clipPath id="clip_0"><rect width="248" height="178"></rect></clipPath><g><g><g><line x1="0" y1="0" x2="0" y2="178" fill="rgb(0, 0, 0)" stroke="rgb(60, 60, 60)" stroke-width="1px" opacity="0.25"></line><line x1="27.555555555555554" y1="0" x2="27.555555555555554" y2="178" fill="rgb(0, 0, 0)" stroke="rgb(60, 60, 60)" stroke-width="1px" opacity="0.25"></line><line x1="55.11111111111111" y1="0" x2="55.11111111111111" y2="178" fill="rgb(0, 0, 0)" stroke="rgb(60, 60, 60)" stroke-width="1px" opacity="0.25"></line><line x1="82.66666666666666" y1="0" x2="82.66666666666666" y2="178" fill="rgb(0, 0, 0)" stroke="rgb(60, 60, 60)" stroke-width="1px" opacity="0.25"></line><line x1="110.22222222222221" y1="0" x2="110.22222222222221" y2="178" fill="rgb(0, 0, 0)" stroke="rgb(60, 60, 60)" stroke-width="1px" opacity="0.25"></line><line x1="137.77777777777777" y1="0" x2="137.77777777777777" y2="178" fill="rgb(0, 0, 0)" stroke="rgb(60, 60, 60)" stroke-width="1px" opacity="0.25"></line><line x1="165.33333333333331" y1="0" x2="165.33333333333331" y2="178" fill="rgb(0, 0, 0)" stroke="rgb(60, 60, 60)" stroke-width="1px" opacity="0.25"></line><line x1="192.88888888888889" y1="0" x2="192.88888888888889" y2="178" fill="rgb(0, 0, 0)" stroke="rgb(60, 60, 60)" stroke-width="1px" opacity="0.25"></line><line x1="220.44444444444443" y1="0" x2="220.44444444444443" y2="178" fill="rgb(0, 0, 0)" stroke="rgb(60, 60, 60)" stroke-width="1px" opacity="0.25"></line><line x1="248" y1="0" x2="248" y2="178" fill="rgb(0, 0, 0)" stroke="rgb(60, 60, 60)" stroke-width="1px" opacity="0.25"></line></g><g><line x1="0" y1="178" x2="248" y2="178" fill="rgb(0, 0, 0)" stroke="rgb(60, 60, 60)" stroke-width="1px" opacity="0.25"></line><line x1="0" y1="155.75" x2="248" y2="155.75" fill="rgb(0, 0, 0)" stroke="rgb(60, 60, 60)" stroke-width="1px" opacity="0.25"></line><line x1="0" y1="133.5" x2="248" y2="133.5" fill="rgb(0, 0, 0)" stroke="rgb(60, 60, 60)" stroke-width="1px" opacity="0.25"></line><line x1="0" y1="111.25" x2="248" y2="111.25" fill="rgb(0, 0, 0)" stroke="rgb(60, 60, 60)" stroke-width="1px" opacity="0.25"></line><line x1="0" y1="89.00000000000001" x2="248" y2="89.00000000000001" fill="rgb(0, 0, 0)" stroke="rgb(60, 60, 60)" stroke-width="1px" opacity="0.25"></line><line x1="0" y1="66.75" x2="248" y2="66.75" fill="rgb(0, 0, 0)" stroke="rgb(60, 60, 60)" stroke-width="1px" opacity="0.25"></line><line x1="0" y1="44.5" x2="248" y2="44.5" fill="rgb(0, 0, 0)" stroke="rgb(60, 60, 60)" stroke-width="1px" opacity="0.25"></line><line x1="0" y1="22.25" x2="248" y2="22.25" fill="rgb(0, 0, 0)" stroke="rgb(60, 60, 60)" stroke-width="1px" opacity="0.25"></line><line x1="0" y1="0" x2="248" y2="0" fill="rgb(0, 0, 0)" stroke="rgb(60, 60, 60)" stroke-width="1px" opacity="0.25"></line></g></g></g><g><g><line x1="0" y1="155.75" x2="248" y2="155.75" fill="rgb(0, 0, 0)" stroke="rgb(153, 153, 153)" stroke-width="1.5px"></line></g></g><g><g><line x1="27.555555555555554" y1="0" x2="27.555555555555554" y2="178" fill="rgb(0, 0, 0)" stroke="rgb(153, 153, 153)" stroke-width="1.5px"></line></g></g><g><g><g><g><g><path stroke="rgb(255, 112, 67)" stroke-width="2px" d="M27.555555555555554,-20.715057593304664L33.06666666666666,8.138049478294391L38.577777777777776,29.135945560798348L44.08888888888889,46.97427789839543L49.6,60.82672083462154L55.11111111111111,71.34953580631661L60.62222222222222,77.72822649114345L66.13333333333333,81.8154088676846L71.64444444444443,80.34129428128398L77.15555555555555,81.21018538685568L82.66666666666666,82.52720294251063L88.17777777777778,83.81504617208107L93.68888888888888,83.70041514445322L99.2,85.17186421120547L104.71111111111111,86.05387780522778L110.22222222222221,86.34102141773542L115.73333333333333,87.90731576876662L121.24444444444444,90.43928232776948L126.75555555555555,91.76291249197553L132.26666666666665,93.00778856479593L137.77777777777777,96.98864407508988L143.28888888888886,97.82127192204447L148.79999999999998,97.7296884837867L154.3111111111111,100.17201523729881L159.82222222222222,101.64406150725647L165.33333333333331,105.59400775582844L170.84444444444443,109.57163500167066L176.35555555555555,113.2195374651858L181.86666666666665,117.84990370890827L187.37777777777777,119.44569004234974L192.88888888888889,120.8995046300791L198.4,122.43325723059576L203.9111111111111,125.31267487937119L209.42222222222222,124.00949211598066L214.93333333333334,123.56841601987723L220.44444444444443,122.76282536876059L225.95555555555555,124.7556998686464L231.46666666666667,126.82051946495375L236.9777777777778,127.6260586075254L242.48888888888888,127.94877418272277" style="fill: none;" fill="none"></path></g><g><path stroke="rgb(0, 119, 187)" stroke-width="2px" d="M27.555555555555554,-6.38589668041098L33.06666666666666,27.995214806028883L38.577777777777776,51.691025257151296L44.08888888888889,72.02685141595303L49.6,85.73188475247278L55.11111111111111,93.39720006022543L60.62222222222222,94.41781507796429L66.13333333333333,94.06316162584463L71.64444444444443,92.44354108941322L77.15555555555555,92.16973340434203L82.66666666666666,93.40819030546199L88.17777777777778,97.10684107331554L93.68888888888888,99.32948973906457L99.2,100.57556291024052L104.71111111111111,100.57036733544068L110.22222222222221,101.37602714274607L115.73333333333333,103.13699151274419L121.24444444444444,104.45850559778697L126.75555555555555,107.22924093126647L132.26666666666665,108.92757639518932L137.77777777777777,111.99275381535013L143.28888888888886,114.23231111357188L148.79999999999998,116.34816039695927L154.3111111111111,117.6026932018481L159.82222222222222,119.53808436907136L165.33333333333331,122.77493097654124L170.84444444444443,123.47172051982889L176.35555555555555,124.40743123020684L181.86666666666665,125.54138178996448L187.37777777777777,127.3453634782272L192.88888888888889,129.39753817007633L198.4,131.25359001572417L203.9111111111111,132.4087244964582L209.42222222222222,131.27635765905097L214.93333333333334,133.5392605704589L220.44444444444443,133.210354309554L225.95555555555555,134.6764463652084L231.46666666666667,135.10369549403183L236.9777777777778,136.68997322765642L242.48888888888888,137.06055334458026" style="fill: none;" fill="none"></path></g></g></g></g><g opacity="0.2"><g><g><g><path stroke="rgb(255, 112, 67)" stroke-width="2px" d="M27.555555555555554,-20.715057593304664L33.06666666666666,23.92069904645905L38.577777777777776,46.90455420687795L44.08888888888889,64.98878736793995L49.6,76.05612913367804L55.11111111111111,83.43365329538938L60.62222222222222,85.22420912969392L66.13333333333333,86.67838980373926L71.64444444444443,78.57555933343247L77.15555555555555,82.25477637653239L82.66666666666666,84.11369514407124L88.17777777777778,85.36808406107593L93.68888888888888,83.5620968665462L99.2,86.94794969970826L104.71111111111111,87.11868542933371L110.22222222222221,86.68770819541533L115.73333333333333,89.79850334627555L121.24444444444444,93.49653848959134L126.75555555555555,93.36117249960081L132.26666666666665,94.51096748863348L137.77777777777777,101.79552142845934L143.28888888888886,98.8266714795027L148.79999999999998,97.619101166958L154.3111111111111,103.1211354949046L159.82222222222222,103.42156458692627L165.33333333333331,110.363588306529L170.84444444444443,114.37464111269219L176.35555555555555,117.6243994506076L181.86666666666665,123.44109624437988L187.37777777777777,121.3726107981638L192.88888888888889,122.65499374381034L198.4,124.28527194616618L203.9111111111111,128.78958756674547L209.42222222222222,122.43589174078079L214.93333333333334,123.03581420029514L220.44444444444443,121.79007021232974L225.95555555555555,127.16210682457313L231.46666666666667,129.31380052224267L236.9777777777778,128.59875156765338L242.48888888888888,128.3384550207411" style="fill: none;" fill="none"></path></g><g><path stroke="rgb(0, 119, 187)" stroke-width="2px" d="M27.555555555555554,-6.385896680410951L33.06666666666666,46.80168278911151L38.577777777777776,71.74263332318515L44.08888888888889,92.56352076237091L49.6,100.79923059139402L55.11111111111111,102.199841845606L60.62222222222222,95.61720110115131L66.13333333333333,93.64119049324655L71.64444444444443,90.50351511733608L77.15555555555555,91.84055862179959L82.66666666666666,94.90004757582211L88.17777777777778,101.5671236983617L93.68888888888888,102.01142448396423L99.2,102.07961257593708L104.71111111111111,100.56409499712755L110.22222222222221,102.34875155775809L115.73333333333333,105.26322911219906L121.24444444444444,106.05418507667493L126.75555555555555,110.57485483080383L132.26666666666665,110.97830427944429L137.77777777777777,115.69395118032116L143.28888888888886,116.9365804035915L148.79999999999998,118.90305568714393L154.3111111111111,119.11754706135252L159.82222222222222,121.87507868121611L165.33333333333331,126.68344001768855L170.84444444444443,124.31309760914883L176.35555555555555,125.53730698174331L181.86666666666665,126.91063328576274L187.37777777777777,129.5236812676303L192.88888888888889,131.8755504017754L198.4,133.4947828455479L203.9111111111111,133.80355575110298L209.42222222222222,129.90901845670305L214.93333333333334,136.2717283210368L220.44444444444443,132.81319818462362L225.95555555555555,136.44676061277278L231.46666666666667,135.61960117486888L236.9777777777778,138.60541234508855L242.48888888888888,137.50803088088287" style="fill: none;" fill="none"></path></g></g></g></g></g><g><g opacity="0.251806"><span fill="rgb(0, 0, 0)" stroke="none" stroke-width="1px">Alt + Scroll to Zoom</span></g></g></g><g transform="translate(82, 178)" clip-path="url(#clip_1)"><clipPath id="clip_1"><rect width="248" height="22"></rect></clipPath><g><g><line x1="0" y1="0" x2="0" y2="5" style="visibility: inherit;" fill="rgb(0, 0, 0)" stroke="rgb(204, 204, 204)" stroke-width="1px"></line><line x1="27.555555555555554" y1="0" x2="27.555555555555554" y2="5" style="visibility: inherit;" fill="rgb(0, 0, 0)" stroke="rgb(204, 204, 204)" stroke-width="1px"></line><line x1="55.11111111111111" y1="0" x2="55.11111111111111" y2="5" style="visibility: inherit;" fill="rgb(0, 0, 0)" stroke="rgb(204, 204, 204)" stroke-width="1px"></line><line x1="82.66666666666666" y1="0" x2="82.66666666666666" y2="5" style="visibility: inherit;" fill="rgb(0, 0, 0)" stroke="rgb(204, 204, 204)" stroke-width="1px"></line><line x1="110.22222222222221" y1="0" x2="110.22222222222221" y2="5" style="visibility: inherit;" fill="rgb(0, 0, 0)" stroke="rgb(204, 204, 204)" stroke-width="1px"></line><line x1="137.77777777777777" y1="0" x2="137.77777777777777" y2="5" style="visibility: inherit;" fill="rgb(0, 0, 0)" stroke="rgb(204, 204, 204)" stroke-width="1px"></line><line x1="165.33333333333331" y1="0" x2="165.33333333333331" y2="5" style="visibility: inherit;" fill="rgb(0, 0, 0)" stroke="rgb(204, 204, 204)" stroke-width="1px"></line><line x1="192.88888888888889" y1="0" x2="192.88888888888889" y2="5" style="visibility: inherit;" fill="rgb(0, 0, 0)" stroke="rgb(204, 204, 204)" stroke-width="1px"></line><line x1="220.44444444444443" y1="0" x2="220.44444444444443" y2="5" style="visibility: inherit;" fill="rgb(0, 0, 0)" stroke="rgb(204, 204, 204)" stroke-width="1px"></line><line x1="248" y1="0" x2="248" y2="5" style="visibility: inherit;" fill="rgb(0, 0, 0)" stroke="rgb(204, 204, 204)" stroke-width="1px"></line></g><g transform="translate(0, 8)"><text x="0" y="0" dx="0em" dy="0.95em" style="text-anchor: middle; visibility: hidden; font-family: &quot;Helvetica Neue&quot;, sans-serif; font-size: 12px; font-weight: 200;" fill="rgb(50, 49, 63)" stroke="none" stroke-width="1px">-5</text><text x="27.555555555555554" y="0" dx="0em" dy="0.95em" style="text-anchor: middle; visibility: inherit; font-family: &quot;Helvetica Neue&quot;, sans-serif; font-size: 12px; font-weight: 200;" fill="rgb(50, 49, 63)" stroke="none" stroke-width="1px">0</text><text x="55.11111111111111" y="0" dx="0em" dy="0.95em" style="text-anchor: middle; visibility: inherit; font-family: &quot;Helvetica Neue&quot;, sans-serif; font-size: 12px; font-weight: 200;" fill="rgb(50, 49, 63)" stroke="none" stroke-width="1px">5</text><text x="82.66666666666666" y="0" dx="0em" dy="0.95em" style="text-anchor: middle; visibility: inherit; font-family: &quot;Helvetica Neue&quot;, sans-serif; font-size: 12px; font-weight: 200;" fill="rgb(50, 49, 63)" stroke="none" stroke-width="1px">10</text><text x="110.22222222222221" y="0" dx="0em" dy="0.95em" style="text-anchor: middle; visibility: inherit; font-family: &quot;Helvetica Neue&quot;, sans-serif; font-size: 12px; font-weight: 200;" fill="rgb(50, 49, 63)" stroke="none" stroke-width="1px">15</text><text x="137.77777777777777" y="0" dx="0em" dy="0.95em" style="text-anchor: middle; visibility: inherit; font-family: &quot;Helvetica Neue&quot;, sans-serif; font-size: 12px; font-weight: 200;" fill="rgb(50, 49, 63)" stroke="none" stroke-width="1px">20</text><text x="165.33333333333331" y="0" dx="0em" dy="0.95em" style="text-anchor: middle; visibility: inherit; font-family: &quot;Helvetica Neue&quot;, sans-serif; font-size: 12px; font-weight: 200;" fill="rgb(50, 49, 63)" stroke="none" stroke-width="1px">25</text><text x="192.88888888888889" y="0" dx="0em" dy="0.95em" style="text-anchor: middle; visibility: inherit; font-family: &quot;Helvetica Neue&quot;, sans-serif; font-size: 12px; font-weight: 200;" fill="rgb(50, 49, 63)" stroke="none" stroke-width="1px">30</text><text x="220.44444444444443" y="0" dx="0em" dy="0.95em" style="text-anchor: middle; visibility: inherit; font-family: &quot;Helvetica Neue&quot;, sans-serif; font-size: 12px; font-weight: 200;" fill="rgb(50, 49, 63)" stroke="none" stroke-width="1px">35</text><text x="248" y="0" dx="0em" dy="0.95em" style="text-anchor: middle; visibility: hidden; font-family: &quot;Helvetica Neue&quot;, sans-serif; font-size: 12px; font-weight: 200;" fill="rgb(50, 49, 63)" stroke="none" stroke-width="1px">40</text></g><line x1="0" y1="0" x2="248" y2="0" fill="rgb(0, 0, 0)" stroke="rgb(204, 204, 204)" stroke-width="1px"></line></g></g></g></g></svg>